<?xml version="1.0" encoding="UTF-8"?>
<svg version="1.1" xmlns="http://www.w3.org/2000/svg" width="1350" height="1350">
<path d="M0 0 C1.28834747 -0.00100708 2.57669495 -0.00201416 3.90408325 -0.00305176 C24.51471327 0.00782566 44.79722438 0.69684211 65.25 3.25 C66.40661133 3.38921875 67.56322266 3.5284375 68.75488281 3.671875 C117.88973033 9.75215404 165.93663672 23.41321651 211.25 43.25 C212.21583008 43.66975098 213.18166016 44.08950195 214.17675781 44.52197266 C245.60653678 58.26397451 275.37313257 75.25681615 303.25 95.25 C303.99556152 95.78447754 304.74112305 96.31895508 305.50927734 96.86962891 C319.61596344 107.03026726 333.13901809 117.78482217 346.3125 129.125 C346.90772461 129.63619385 347.50294922 130.1473877 348.11621094 130.67407227 C351.76678853 133.84850994 355.22265678 137.16137504 358.60253906 140.62280273 C360.315982 142.31517042 362.10093153 143.88040934 363.9375 145.4375 C371.60645191 152.06204212 378.78706936 159.35303032 385.3515625 167.0703125 C387.36981245 169.38756244 389.45321294 171.63195518 391.55102539 173.87695312 C397.39098149 180.13087851 402.93020048 186.54282616 408.25 193.25 C409.09750649 194.30480784 409.94516912 195.35949025 410.79296875 196.4140625 C430.67509727 221.28396618 447.7768324 248.02011494 462.99707031 275.95703125 C463.81123699 277.44702607 464.63061795 278.93418772 465.45605469 280.41796875 C502.88516513 347.7351895 524.16197808 429.88366992 524.453125 506.8359375 C524.46357849 508.70823029 524.46357849 508.70823029 524.47424316 510.61834717 C524.49152723 514.62060299 524.49841844 518.62271517 524.5 522.625 C524.50088371 523.64745945 524.50088371 523.64745945 524.50178528 524.69057465 C524.51440022 545.36852262 524.09871739 565.7338144 521.25 586.25 C521.10014648 587.40322754 520.95029297 588.55645508 520.79589844 589.74462891 C518.66774395 606.05370245 515.73637078 622.17907775 512.25 638.25 C512.05825195 639.13816406 511.86650391 640.02632812 511.66894531 640.94140625 C501.66160142 686.62036666 484.76532823 731.2835108 462.25 772.25 C461.7456543 773.16958496 461.24130859 774.08916992 460.72167969 775.03662109 C453.70761754 787.7690863 446.41329546 800.22014673 438.25 812.25 C437.6425293 813.14750977 437.03505859 814.04501953 436.40917969 814.96972656 C428.51978753 826.58001605 420.44824395 837.92863878 411.49169922 848.74072266 C409.72962413 850.8825135 408.02454111 853.06812641 406.3125 855.25 C398.99901602 864.3804038 391.40252147 873.36353949 382.99609375 881.5078125 C381.21068756 883.28922449 379.57446092 885.14436697 377.9375 887.0625 C371.66723995 894.33485641 364.76862563 901.08802784 357.46484375 907.31640625 C355.13680346 909.34882238 352.87867169 911.44358175 350.62084961 913.55322266 C344.36741434 919.39218078 337.95636828 924.9308394 331.25 930.25 C330.19519216 931.09750649 329.14050975 931.94516912 328.0859375 932.79296875 C313.42687989 944.51123205 298.15461914 955.29292167 282.25 965.25 C281.52312988 965.70616699 280.79625977 966.16233398 280.04736328 966.63232422 C269.74346679 973.07536039 259.28642671 979.19435449 248.59814453 984.97753906 C247.0181935 985.83371548 245.44107979 986.69514642 243.86669922 987.56152344 C191.69833628 1016.22637949 132.68024672 1033.77521053 73.875 1042 C73.16147369 1042.10095978 72.44794739 1042.20191956 71.71279907 1042.30593872 C66.56638084 1043.02623965 61.41357659 1043.6656449 56.25 1044.25 C55.01062683 1044.39143936 55.01062683 1044.39143936 53.74621582 1044.53573608 C37.80345842 1046.29142394 21.89807935 1046.59482866 5.87402344 1046.56567383 C3.1388291 1046.56106422 0.4040819 1046.56790587 -2.33105469 1046.58618164 C-101.59857202 1047.24236974 -201.43202377 1016.98023654 -298.66308594 952.71679688 C-300.59465256 951.35918664 -302.53433223 950.01416029 -304.4765625 948.671875 C-312.96688451 942.75842362 -320.97957343 936.3215852 -328.95019531 929.72949219 C-330.51492824 928.44323587 -332.09594223 927.17683539 -333.6796875 925.9140625 C-341.12521986 919.97089275 -348.00959615 913.49122929 -354.93066406 906.95605469 C-357.12231995 904.90086261 -359.34093487 902.87712044 -361.56591797 900.8581543 C-369.39349364 893.75459745 -376.97361682 886.47217633 -383.84765625 878.43359375 C-385.756658 876.24235766 -387.71948855 874.10714099 -389.69677734 871.97753906 C-395.30424086 865.93106387 -400.62830348 859.71618966 -405.75 853.25 C-406.25370117 852.61884277 -406.75740234 851.98768555 -407.27636719 851.33740234 C-427.54960967 825.88508286 -445.16606264 798.80354409 -460.75 770.25 C-461.51159424 768.86458008 -461.51159424 768.86458008 -462.28857422 767.45117188 C-492.07043788 712.99618698 -510.72235541 651.28964509 -518.31201172 589.77392578 C-518.59661763 587.48406977 -518.89439218 585.19579839 -519.20751953 582.90966797 C-524.57141191 543.1983482 -524.28432107 499.91458442 -518.75 460.25 C-518.60014648 459.09822266 -518.45029297 457.94644531 -518.29589844 456.75976562 C-516.1678348 440.44912924 -513.2366994 424.32243703 -509.75 408.25 C-509.55825195 407.36183594 -509.36650391 406.47367188 -509.16894531 405.55859375 C-495.41441595 342.77544078 -468.4621003 281.03680579 -431.75 228.25 C-431.31510254 227.61964844 -430.88020508 226.98929688 -430.43212891 226.33984375 C-423.53954083 216.36342272 -416.36591556 206.68473008 -408.75 197.25 C-408.01394531 196.33089844 -407.27789062 195.41179687 -406.51953125 194.46484375 C-402.15044712 189.06118597 -397.65894483 183.76541435 -393.125 178.5 C-392.33536865 177.57876343 -392.33536865 177.57876343 -391.52978516 176.63891602 C-388.28268785 172.89106032 -384.9062343 169.33695006 -381.35620117 165.87426758 C-379.71056908 164.21012557 -378.1947593 162.47716183 -376.6875 160.6875 C-369.37569861 152.21772102 -361.26483155 144.1755914 -352.7265625 136.9453125 C-350.24139806 134.8137683 -347.84559854 132.59316401 -345.4375 130.375 C-340.03302581 125.45781447 -334.47074725 120.79274921 -328.75 116.25 C-328.11739258 115.74484863 -327.48478516 115.23969727 -326.83300781 114.71923828 C-301.05973296 94.1915829 -273.68565112 75.96367732 -244.47949219 60.68896484 C-241.97303282 59.36758099 -239.48770851 58.01494472 -237.0078125 56.64453125 C-177.90895429 24.23136511 -109.60087682 7.10579411 -42.75 1.25 C-41.62899902 1.146875 -40.50799805 1.04375 -39.35302734 0.9375 C-26.26391006 -0.11157767 -13.12242127 0.00711169 0 0 Z " fill="#FEFEFE" transform="translate(673.75,151.75)"/>
<path d="M0 0 C38.94 0 77.88 0 118 0 C118 67.65 118 135.3 118 205 C121.96 203.02 121.96 203.02 126 201 C128.71508206 199.87685274 131.42477441 198.78988675 134.16796875 197.7421875 C135.33325356 197.29111633 135.33325356 197.29111633 136.52207947 196.83093262 C138.19976201 196.18167918 139.87807119 195.53404308 141.5569458 194.88787842 C146.11580941 193.13251654 150.66928778 191.36330807 155.22265625 189.59375 C156.17557556 189.22357758 157.12849487 188.85340515 158.11029053 188.47201538 C169.14381226 184.17808497 180.13586308 179.78102675 191.125 175.375 C192.06532074 174.99809021 193.00564148 174.62118042 193.97445679 174.23284912 C195.80941028 173.49721035 197.64413774 172.76100749 199.47862244 172.02420044 C201.22580046 171.32428461 202.97435749 170.62779982 204.72438049 169.93502808 C208.63025389 168.3842436 212.49697898 166.79618547 216.31542969 165.04003906 C217.31774124 164.59442123 217.31774124 164.59442123 218.34030151 164.13980103 C220.09405693 163.35532325 221.83461255 162.54151195 223.57373047 161.72509766 C228.38021093 160.70790748 231.60924984 162.18838645 236 164 C237.90076329 164.73925267 239.80154209 165.47846559 241.70251083 166.21718979 C245.60572808 167.74325684 249.49505671 169.30413688 253.38671875 170.859375 C255.13292571 171.55504631 256.87922527 172.25048519 258.62561035 172.94570923 C262.36103982 174.43329177 266.09584866 175.92241786 269.83016968 177.41278076 C275.7514193 179.77591348 281.67404972 182.13557121 287.59692383 184.49462891 C294.72663174 187.33458383 301.8560562 190.17524778 308.98508739 193.01690102 C326.09162093 199.83542634 343.20390501 206.63945252 360.31768799 213.4397583 C364.3584468 215.04543507 368.39896759 216.6517098 372.43940926 218.25818443 C387.16060924 224.11118486 401.88368651 229.95925907 416.6180706 235.77900314 C418.56619747 236.5485305 420.5142061 237.31835634 422.46217346 238.08828735 C428.32076011 240.40373244 434.18023989 242.71686125 440.04174805 245.02490234 C442.04480229 245.81597141 444.04781619 246.60714266 446.05078125 247.3984375 C446.95692169 247.75405762 447.86306213 248.10967773 448.79666138 248.47607422 C449.60924408 248.79769531 450.42182678 249.11931641 451.2590332 249.45068359 C452.31511528 249.86669327 452.31511528 249.86669327 453.39253235 250.29110718 C455 251 455 251 456 252 C456.09690672 253.53777915 456.12371688 255.08002118 456.12304783 256.62085056 C456.12503888 257.62605954 456.12702993 258.63126851 456.12908131 259.66693836 C456.12616847 260.78461863 456.12325563 261.9022989 456.12025452 263.05384827 C456.12153615 264.81922452 456.12153615 264.81922452 456.12284368 266.62026495 C456.12421186 269.90168085 456.12106442 273.18303785 456.11606562 276.46444666 C456.1117644 279.99752278 456.11320731 283.53059693 456.1139679 287.06367493 C456.11449334 293.18983966 456.11134441 299.31599378 456.10573006 305.44215584 C456.09761782 314.29965833 456.09500012 323.15715567 456.09374207 332.01466148 C456.09155111 346.38388205 456.08488985 360.75309696 456.07543945 375.12231445 C456.06626646 389.08422823 456.05918508 403.04614046 456.05493164 417.00805664 C456.05453756 418.29804465 456.05453756 418.29804465 456.05413551 419.61409301 C456.05283051 423.92823489 456.05156679 428.24237678 456.05032361 432.55651867 C456.03994964 468.37101748 456.0215106 504.18550581 456 540 C417.06 540 378.12 540 338 540 C338 470.04 338 400.08 338 328 C336.02 327.67 334.04 327.34 332 327 C329.5863129 326.14664255 327.24193649 325.25543849 324.87890625 324.28125 C324.17045059 323.99502274 323.46199493 323.70879547 322.73207092 323.41389465 C321.16985528 322.78225419 319.60867554 322.14804718 318.04840088 321.5116272 C315.50949166 320.47842847 312.96615187 319.45691681 310.42138672 318.43823242 C300.93966076 314.63750506 291.47770293 310.79160767 282.03800106 306.88780785 C276.37202395 304.54618476 270.69708526 302.2270903 265.01682377 299.9203434 C261.47129505 298.47907614 257.93130234 297.02652803 254.40139771 295.54736328 C251.03191871 294.13553808 247.65181975 292.75294301 244.26214409 291.39035606 C242.40507025 290.63504401 240.56042182 289.84940436 238.71632385 289.0629425 C232.39862756 286.55528093 228.14721606 285.23515939 221.7192688 287.79386902 C220.8219101 288.19189224 219.92455139 288.58991547 219 289 C217.24499611 289.67265679 215.48983759 290.34493122 213.73243332 291.0112915 C210.25641134 292.34288055 206.80635422 293.73948795 203.3515625 295.125 C201.8046664 295.74168858 200.25761433 296.35798602 198.7104187 296.97392273 C195.40695754 298.28993543 192.10455254 299.60855088 188.80297852 300.92929077 C183.54931604 303.03092229 178.29340703 305.12689328 173.03710938 307.22192383 C167.62745685 309.37836885 162.21795315 311.5351828 156.80926514 313.69404602 C145.60425271 318.16637008 134.39489609 322.62752643 123.1796875 327.07421875 C122.47931932 327.35194941 121.77895115 327.62968006 121.0573597 327.9158268 C115.52067962 330.11139226 109.98381466 332.30649139 104.44686508 334.50137711 C88.21959847 340.9343455 72.00258108 347.39173723 55.80630112 353.90237999 C53.33022281 354.89755692 50.85389283 355.89210479 48.37747192 356.88642883 C46.75164623 357.53927184 45.12582225 358.19211911 43.5 358.8449707 C42.30387494 359.32524829 42.30387494 359.32524829 41.08358574 359.81522846 C36.36971883 361.70859254 31.65785649 363.60684404 26.94741726 365.50871849 C24.05113805 366.67695921 21.15319757 367.84103355 18.25480843 369.00402832 C16.90643421 369.54615713 15.55879658 370.09012197 14.21194267 370.63601685 C12.37228341 371.38144316 10.52984073 372.11998929 8.68725586 372.8581543 C7.65547714 373.27413376 6.62369843 373.69011322 5.56065369 374.11869812 C3 375 3 375 0 375 C0 251.25 0 127.5 0 0 Z " fill="#1F1A17" transform="translate(447,405)"/>
<path d="M0 0 C38.94 0 77.88 0 118 0 C118 72.93 118 145.86 118 221 C112.65912003 219.21970668 107.48137058 217.47006461 102.26953125 215.41015625 C101.62853485 215.15738419 100.98753845 214.90461212 100.32711792 214.6441803 C98.15450779 213.78630096 95.98344795 212.92457631 93.8125 212.0625 C92.23219098 211.43665276 90.65186813 210.81084042 89.0715332 210.18505859 C83.04522542 207.79622482 77.02258429 205.39820253 71 203 C69.61698817 202.44947287 68.23397202 201.89895663 66.85095215 201.34844971 C57.40732293 197.58906473 47.96565645 193.82478558 38.52572632 190.05612183 C35.29371738 188.76584877 32.06128924 187.47663419 28.82852173 186.18826294 C24.96893035 184.64990252 21.11040106 183.1089075 17.25265884 181.56591606 C15.80617622 180.98783594 14.35933763 180.4106457 12.91213608 179.83436775 C10.9192129 179.0405824 8.92759273 178.24361407 6.9362793 177.44580078 C5.80957321 176.99584747 4.68286713 176.54589417 3.52201843 176.08230591 C1 175 1 175 0 174 C-0.09704641 171.75975357 -0.12186656 169.51637946 -0.12025452 167.27403259 C-0.12153615 166.20694379 -0.12153615 166.20694379 -0.12284368 165.11829764 C-0.12450057 162.71677952 -0.11897374 160.31533012 -0.11352539 157.91381836 C-0.11324354 156.19940696 -0.11340122 154.48499544 -0.1139679 152.77058411 C-0.11425594 148.10136027 -0.10835804 143.43216188 -0.10139394 138.76294398 C-0.09516161 133.88888473 -0.0945567 129.01482495 -0.09336853 124.14076233 C-0.09025486 114.9043057 -0.08204098 105.66786085 -0.07201904 96.43140942 C-0.05877411 83.95494047 -0.05335829 71.47846833 -0.04751682 59.00199413 C-0.03810111 39.33465393 -0.01818244 19.66733857 0 0 Z " fill="#1F1A17" transform="translate(785,405)"/>
<path d="M0 0 C0 59.4 0 118.8 0 180 C-38.94 180 -77.88 180 -118 180 C-118 135.78 -118 91.56 -118 46 C-64.4375 24.6875 -64.4375 24.6875 -47.54467773 17.9675293 C-42.53383332 15.97318326 -42.53383332 15.97318326 -37.52308655 13.97859192 C-35.29686246 13.09255125 -33.07049364 12.20687418 -30.8440094 11.32148743 C-27.46524296 9.9777999 -24.08694225 8.63294761 -20.70874023 7.2878418 C-19.72214385 6.89579654 -18.73554747 6.50375128 -17.71905422 6.09982586 C-13.78978664 4.53413751 -9.8797304 2.95858973 -6.01820374 1.23200989 C-3 0 -3 0 0 0 Z " fill="#1F1A17" transform="translate(565,765)"/>
</svg>
